# xmcd
#
# Track frame offsets: 
#        150
#        23298
#        51690
#        67838
#        100980
#        121710
#        138685
#        161670
#        183515
#        205688
#        225643
#        246633
#        265133
#        280908
#        306033
#
# Disc length: 4440 seconds
#
# Revision: 2
# Processed by: cddbd v1.5.2PL0 Copyright (c) Steve Scherf et al.
# Submitted via: ExactAudioCopyFreeDBPlugin 1.0
#
DISCID=d411560f
DTITLE=Buster Benton - "Blues At The Top"
DYEAR=1988
DGENRE=Blues
TTITLE0=My Lady
TTITLE1=Blues And Trouble
TTITLE2=It's Good In My Neighborhood
TTITLE3=Loan Me For A Dime
TTITLE4=I Wish I Knew
TTITLE5=From Missouri
TTITLE6=Dangerous Woman
TTITLE7=That's Your Thing
TTITLE8=Can't Wait To See My Baby Face
TTITLE9=In The Ghetto
TTITLE10=Honey Bee
TTITLE11=The Hawk Is Coming
TTITLE12=I Must Have A Hole In My Head
TTITLE13=Cold Man
TTITLE14=Money Is The Name Of The Game
EXTD=YEAR: 1993
EXTT0=
EXTT1=
EXTT2=
EXTT3=
EXTT4=
EXTT5=
EXTT6=
EXTT7=
EXTT8=
EXTT9=
EXTT10=
EXTT11=
EXTT12=
EXTT13=
EXTT14=
PLAYORDER=
